<svg width="246" height="35" viewBox="0 0 246 35" fill="none" xmlns="http://www.w3.org/2000/svg">
<path d="M8.88 27.28H17.44V34H2.98023e-08V5.68H8.88V27.28ZM44.1144 11.44V34H35.2344V30.56C34.541 31.6267 33.6077 32.4933 32.4344 33.16C31.2877 33.8267 29.9144 34.16 28.3144 34.16C25.7277 34.16 23.701 33.2933 22.2344 31.56C20.7944 29.8267 20.0744 27.48 20.0744 24.52V11.44H28.9144V23.4C28.9144 24.4667 29.1944 25.32 29.7544 25.96C30.341 26.5733 31.1144 26.88 32.0744 26.88C33.061 26.88 33.8344 26.5733 34.3944 25.96C34.9544 25.32 35.2344 24.4667 35.2344 23.4V11.44H44.1144ZM78.245 11.28C81.125 11.28 83.3517 12.1467 84.925 13.88C86.525 15.6133 87.325 17.96 87.325 20.92V34H78.485V22.04C78.485 21.08 78.1917 20.3333 77.605 19.8C77.045 19.24 76.285 18.96 75.325 18.96C74.3383 18.96 73.565 19.24 73.005 19.8C72.445 20.3333 72.165 21.08 72.165 22.04V34H63.325V22.04C63.325 21.08 63.0317 20.3333 62.445 19.8C61.885 19.24 61.125 18.96 60.165 18.96C59.1783 18.96 58.405 19.24 57.845 19.8C57.285 20.3333 57.005 21.08 57.005 22.04V34H48.125V11.44H57.005V14.48C57.645 13.52 58.5117 12.7467 59.605 12.16C60.725 11.5733 62.0317 11.28 63.525 11.28C65.1517 11.28 66.5917 11.64 67.845 12.36C69.0983 13.0533 70.0983 14.04 70.845 15.32C71.6717 14.1467 72.725 13.1867 74.005 12.44C75.285 11.6667 76.6983 11.28 78.245 11.28ZM95.6519 9.64C94.1052 9.64 92.8652 9.22667 91.9319 8.4C90.9985 7.57333 90.5319 6.53333 90.5319 5.28C90.5319 4 90.9985 2.94667 91.9319 2.12C92.8652 1.26666 94.1052 0.839998 95.6519 0.839998C97.1719 0.839998 98.3985 1.26666 99.3319 2.12C100.265 2.94667 100.732 4 100.732 5.28C100.732 6.53333 100.265 7.57333 99.3319 8.4C98.3985 9.22667 97.1719 9.64 95.6519 9.64ZM100.052 11.44V34H91.1719V11.44H100.052ZM103.783 20.04C103.783 17.32 104.396 14.88 105.623 12.72C106.849 10.5333 108.516 8.82667 110.623 7.6C112.756 6.37333 115.116 5.76 117.703 5.76C120.743 5.76 123.396 6.49333 125.663 7.96C127.929 9.42667 129.583 11.5067 130.623 14.2H126.263C125.489 12.52 124.369 11.2267 122.903 10.32C121.463 9.41333 119.729 8.96 117.703 8.96C115.756 8.96 114.009 9.41333 112.463 10.32C110.916 11.2267 109.703 12.52 108.823 14.2C107.943 15.8533 107.503 17.8 107.503 20.04C107.503 22.2533 107.943 24.2 108.823 25.88C109.703 27.5333 110.916 28.8133 112.463 29.72C114.009 30.6267 115.756 31.08 117.703 31.08C119.729 31.08 121.463 30.64 122.903 29.76C124.369 28.8533 125.489 27.56 126.263 25.88H130.623C129.583 28.5467 127.929 30.6133 125.663 32.08C123.396 33.52 120.743 34.24 117.703 34.24C115.116 34.24 112.756 33.64 110.623 32.44C108.516 31.2133 106.849 29.52 105.623 27.36C104.396 25.2 103.783 22.76 103.783 20.04ZM145.601 34.36C143.548 34.36 141.681 33.8933 140.001 32.96C138.348 32.0267 137.041 30.7067 136.081 29C135.148 27.2667 134.681 25.2667 134.681 23C134.681 20.76 135.161 18.7867 136.121 17.08C137.108 15.3467 138.441 14.0267 140.121 13.12C141.801 12.1867 143.681 11.72 145.761 11.72C147.841 11.72 149.721 12.1867 151.401 13.12C153.081 14.0267 154.401 15.3333 155.361 17.04C156.348 18.7467 156.841 20.7333 156.841 23C156.841 25.2667 156.334 27.2667 155.321 29C154.334 30.7067 152.988 32.0267 151.281 32.96C149.574 33.8933 147.681 34.36 145.601 34.36ZM145.601 31.16C146.908 31.16 148.134 30.8533 149.281 30.24C150.428 29.6267 151.348 28.7067 152.041 27.48C152.761 26.2533 153.121 24.76 153.121 23C153.121 21.24 152.774 19.7467 152.081 18.52C151.388 17.2933 150.481 16.3867 149.361 15.8C148.241 15.1867 147.028 14.88 145.721 14.88C144.388 14.88 143.161 15.1867 142.041 15.8C140.948 16.3867 140.068 17.2933 139.401 18.52C138.734 19.7467 138.401 21.24 138.401 23C138.401 24.7867 138.721 26.2933 139.361 27.52C140.028 28.7467 140.908 29.6667 142.001 30.28C143.094 30.8667 144.294 31.16 145.601 31.16ZM172.307 11.68C174.974 11.68 177.134 12.4933 178.787 14.12C180.44 15.72 181.267 18.04 181.267 21.08V34H177.667V21.6C177.667 19.4133 177.12 17.7467 176.027 16.6C174.934 15.4267 173.44 14.84 171.547 14.84C169.627 14.84 168.094 15.44 166.947 16.64C165.827 17.84 165.267 19.5867 165.267 21.88V34H161.627V12.08H165.267V15.2C165.987 14.08 166.96 13.2133 168.187 12.6C169.44 11.9867 170.814 11.68 172.307 11.68ZM191.653 15.08V28C191.653 29.0667 191.879 29.8267 192.333 30.28C192.786 30.7067 193.573 30.92 194.693 30.92H197.373V34H194.093C192.066 34 190.546 33.5333 189.533 32.6C188.519 31.6667 188.013 30.1333 188.013 28V15.08H185.173V12.08H188.013V6.56H191.653V12.08H197.373V15.08H191.653ZM205.423 15.64C206.063 14.3867 206.97 13.4133 208.143 12.72C209.343 12.0267 210.796 11.68 212.503 11.68V15.44H211.543C207.463 15.44 205.423 17.6533 205.423 22.08V34H201.783V12.08H205.423V15.64ZM226.265 34.36C224.212 34.36 222.345 33.8933 220.665 32.96C219.012 32.0267 217.705 30.7067 216.745 29C215.812 27.2667 215.345 25.2667 215.345 23C215.345 20.76 215.825 18.7867 216.785 17.08C217.772 15.3467 219.105 14.0267 220.785 13.12C222.465 12.1867 224.345 11.72 226.425 11.72C228.505 11.72 230.385 12.1867 232.065 13.12C233.745 14.0267 235.065 15.3333 236.025 17.04C237.012 18.7467 237.505 20.7333 237.505 23C237.505 25.2667 236.998 27.2667 235.985 29C234.998 30.7067 233.652 32.0267 231.945 32.96C230.238 33.8933 228.345 34.36 226.265 34.36ZM226.265 31.16C227.572 31.16 228.798 30.8533 229.945 30.24C231.092 29.6267 232.012 28.7067 232.705 27.48C233.425 26.2533 233.785 24.76 233.785 23C233.785 21.24 233.438 19.7467 232.745 18.52C232.052 17.2933 231.145 16.3867 230.025 15.8C228.905 15.1867 227.692 14.88 226.385 14.88C225.052 14.88 223.825 15.1867 222.705 15.8C221.612 16.3867 220.732 17.2933 220.065 18.52C219.398 19.7467 219.065 21.24 219.065 23C219.065 24.7867 219.385 26.2933 220.025 27.52C220.692 28.7467 221.572 29.6667 222.665 30.28C223.758 30.8667 224.958 31.16 226.265 31.16ZM245.931 4.4V34H242.291V4.4H245.931Z" fill="#FAFAFA"/>
</svg>
